# xmcd
# 
# Track frame offsets:
#     150
#     24555
#     51350
#     67673
#     86275
#     103143
#     125543
#     148464
#     175268
#     192022
#     210329
#     230091
#     256431
#     282808
# 
# Disc length: 4098
# 
# Revision: 1
# Processed by: cddbd v1.5.2PL0 Copyright (c) Steve Scherf et al.
# Submitted via: fre:ac v1.0.27
# 
DISCID=c810000e
DTITLE=Various Artist - Renaissance The Mix Collection - Part 10
DYEAR=2016
DGENRE=Electronic
TTITLE0=Jonny White - Bodies
TTITLE1=Borrowed Identity - Faith
TTITLE2=Sascha Dive - Get Out Of The Ghetto Blues (Fred P Remix)
TTITLE3=Mandar - Wet Paul
TTITLE4=Searle - She Moves (Russ Gabriel Remix)
TTITLE5=DJ Sneak - The Music In Me
TTITLE6=Moomin - Humbling Love
TTITLE7=Fresh and Low - New Life
TTITLE8=Delano Smith - Mariana´s Song
TTITLE9=J Dahlback, The Persuader - What Is The Time, Mr Templar
TTITLE10=Aphrodisiac - Song Of The Siren
TTITLE11=Steve Tang - Mystic Ritual
TTITLE12=Nitin - Dubbed Out (Deadbeat Remix)
TTITLE13=AD/D - Motor City Sunrise (Jonny´s Renaissance Version)
EXTD=
EXTT0=
EXTT1=
EXTT2=
EXTT3=
EXTT4=
EXTT5=
EXTT6=
EXTT7=
EXTT8=
EXTT9=
EXTT10=
EXTT11=
EXTT12=
EXTT13=
PLAYORDER=
